<?xml version="1.0" encoding="UTF-8"?>
<svg version="1.1" xmlns="http://www.w3.org/2000/svg" width="267" height="267">
<path d="M0 0 C0.91523438 0.28875 1.83046875 0.5775 2.7734375 0.875 C21.64304376 7.54186404 35.6953974 22.79524682 44.3125 40.375 C52.45391286 59.44722345 54.71438365 81.32832169 47 101 C37.6460144 122.74107049 23.17076891 138.03881918 1.20703125 146.9296875 C-0.38044922 147.45949219 -0.38044922 147.45949219 -2 148 C-3.14891724 148.38841064 -3.14891724 148.38841064 -4.32104492 148.78466797 C-11.91295351 151.12864633 -19.02885873 151.45215748 -26.9375 151.375 C-28.12279297 151.38660156 -29.30808594 151.39820313 -30.52929688 151.41015625 C-49.97705613 151.34614827 -65.34254661 144.13102624 -80 132 C-81.17175781 131.17048828 -81.17175781 131.17048828 -82.3671875 130.32421875 C-82.90601562 129.88722656 -83.44484375 129.45023438 -84 129 C-84 128.34 -84 127.68 -84 127 C-84.66 127 -85.32 127 -86 127 C-86.66 125.35 -87.32 123.7 -88 122 C-88.66 122 -89.32 122 -90 122 C-94.6862223 116.29923473 -97.7398114 109.72903076 -100.3125 102.875 C-100.55452148 102.23111328 -100.79654297 101.58722656 -101.04589844 100.92382812 C-108.19107213 80.98990208 -107.02705686 59.14351126 -98.203125 40.015625 C-88.9696949 21.09967257 -73.8716266 6.67002333 -53.91455078 -0.28442383 C-36.3772805 -6.0774836 -17.50525061 -5.90341004 0 0 Z " fill="#030303" transform="translate(161,116)"/>
<path d="M0 0 C7.02559751 3.37086749 12.6465813 7.83632277 18.49609375 12.890625 C20.79696186 14.99608119 20.79696186 14.99608119 23 16 C23 16.66 23 17.32 23 18 C24.32 18.33 25.64 18.66 27 19 C27 19.66 27 20.32 27 21 C27.79664063 21.34611328 27.79664063 21.34611328 28.609375 21.69921875 C31.75459498 23.41058844 34.46314557 25.5842718 37.25 27.8125 C37.8584375 28.29460938 38.466875 28.77671875 39.09375 29.2734375 C44.44371739 33.52513923 49.74143971 37.84118672 55.03613281 42.16137695 C59.88188735 46.10979116 64.77859551 49.98647495 69.70654297 53.83154297 C74.22892075 57.36973652 78.68103611 60.98902954 83.125 64.625 C87.6817494 68.35009932 92.26722044 71.99851268 97 75.5 C102.43653238 79.52214997 107.67824572 83.751608 112.90454102 88.04052734 C116.26868119 90.79709028 119.64961449 93.5206809 123.09765625 96.171875 C123.74428223 96.67025879 124.3909082 97.16864258 125.05712891 97.68212891 C126.28276605 98.62260093 127.51272957 99.5574696 128.74755859 100.48583984 C132.88999221 103.66997663 132.88999221 103.66997663 134 107 C128.10925955 112.49711955 122.04651158 117.61291551 115.68505859 122.54663086 C109.29104552 127.51812662 103.05293833 132.6738731 96.8125 137.8359375 C96.16410156 138.36799805 95.51570312 138.90005859 94.84765625 139.44824219 C93.64483697 140.45843238 92.46337468 141.49479829 91.30859375 142.55957031 C87.56425671 145.96372635 87.56425671 145.96372635 84.8125 146.140625 C82.18246622 144.48551753 81.39061959 142.51675355 80 139.75 C69.19642843 120.33588955 48.98265462 105.08435812 27.71386719 98.93481445 C4.71779218 92.92004753 -21.95120271 93.73551392 -42.87109375 105.6328125 C-45.64149977 107.34654493 -48.3295585 109.13473707 -51 111 C-51.74765625 111.52207031 -52.4953125 112.04414062 -53.265625 112.58203125 C-65.38769793 121.54277221 -75.24213217 132.48426434 -82 146 C-85.25329075 145.40092169 -87.10664436 144.35820644 -89.6171875 142.2265625 C-90.29934326 141.65470215 -90.98149902 141.0828418 -91.68432617 140.49365234 C-92.40724854 139.87699707 -93.1301709 139.2603418 -93.875 138.625 C-95.40901494 137.33718094 -96.94418681 136.05073883 -98.48046875 134.765625 C-99.62588135 133.8055957 -99.62588135 133.8055957 -100.79443359 132.82617188 C-103.87475391 130.27571848 -107.02391683 127.82078395 -110.1875 125.375 C-117.3348775 119.82665106 -124.17783239 113.94088456 -131 108 C-130.73819929 104.48439044 -130.18434577 103.18619539 -127.6640625 100.640625 C-126.15972656 99.45726563 -126.15972656 99.45726563 -124.625 98.25 C-124.08552734 97.81953369 -123.54605469 97.38906738 -122.99023438 96.94555664 C-121.87383734 96.05488725 -120.7536799 95.16891167 -119.62988281 94.28759766 C-117.21690551 92.38136005 -114.86338189 90.40468813 -112.5 88.4375 C-96.72613065 75.57537688 -96.72613065 75.57537688 -92 74 C-92 73.34 -92 72.68 -92 72 C-90.70703125 70.84375 -90.70703125 70.84375 -88.8125 69.5 C-75.55654637 59.87199158 -62.78365602 49.58315606 -50.125 39.1875 C-44.53005043 34.59635021 -38.82698375 30.1618111 -33.078125 25.765625 C-26.4081008 20.66003405 -19.81504836 15.47076321 -13.26879883 10.20727539 C-8.91216277 6.71084127 -4.50238092 3.3078717 0 0 Z " fill="#040404" transform="translate(133,0)"/>
<path d="M0 0 C2.51033417 1.1336993 2.96441202 2.36118938 3.9375 4.875 C2.2875 6.525 0.6375 8.175 -1.0625 9.875 C-2.3825 9.215 -3.7025 8.555 -5.0625 7.875 C-4.7325 6.885 -4.4025 5.895 -4.0625 4.875 C-3.4025 4.875 -2.7425 4.875 -2.0625 4.875 C-2.0625 4.215 -2.0625 3.555 -2.0625 2.875 C-3.0525 2.545 -4.0425 2.215 -5.0625 1.875 C-2.0625 -0.125 -2.0625 -0.125 0 0 Z " fill="#1F1F1F" transform="translate(263.0625,102.125)"/>
<path d="M0 0 C0.66 0.33 1.32 0.66 2 1 C-0.43704305 6.72705118 -0.43704305 6.72705118 -3.0625 8 C-3.701875 8 -4.34125 8 -5 8 C-5.66 7.34 -6.32 6.68 -7 6 C-4.69 4.02 -2.38 2.04 0 0 Z " fill="#292929" transform="translate(125,6)"/>
<path d="M0 0 C0.66 0.33 1.32 0.66 2 1 C1.875 2.8125 1.875 2.8125 1 5 C-1.875 6.8125 -1.875 6.8125 -5 8 C-5.99 7.67 -6.98 7.34 -8 7 C-5.36 4.69 -2.72 2.38 0 0 Z " fill="#3C3C3C" transform="translate(84,38)"/>
<path d="M0 0 C0.66 0.33 1.32 0.66 2 1 C1.01 2.485 1.01 2.485 0 4 C0 4.99 0 5.98 0 7 C0.66 7 1.32 7 2 7 C1.67 7.99 1.34 8.98 1 10 C-0.32 9.01 -1.64 8.02 -3 7 C-2.25 2.25 -2.25 2.25 0 0 Z " fill="#212121" transform="translate(5,101)"/>
<path d="M0 0 C2.31 0 4.62 0 7 0 C5.68 1.65 4.36 3.3 3 5 C1.68 4.67 0.36 4.34 -1 4 C-0.67 2.68 -0.34 1.36 0 0 Z " fill="#242424" transform="translate(217,141)"/>
<path d="M0 0 C0 3 0 3 -1 5 C-1.66 5 -2.32 5 -3 5 C-3.33 6.65 -3.66 8.3 -4 10 C-5.32 10.33 -6.64 10.66 -8 11 C-6.63629701 8.00779732 -5.05091917 5.70973471 -2.875 3.25 C-2.33617188 2.63640625 -1.79734375 2.0228125 -1.2421875 1.390625 C-0.62730469 0.70226562 -0.62730469 0.70226562 0 0 Z " fill="#303030" transform="translate(79,133)"/>
<path d="M0 0 C0.66 0.33 1.32 0.66 2 1 C2.33 1.99 2.66 2.98 3 4 C2.01 4.66 1.02 5.32 0 6 C-0.66 5.67 -1.32 5.34 -2 5 C-4.09821215 5.39938767 -4.09821215 5.39938767 -6 6 C-5.67 5.34 -5.34 4.68 -5 4 C-4.34 4 -3.68 4 -3 4 C-3 3.34 -3 2.68 -3 2 C-2.01 1.34 -1.02 0.68 0 0 Z " fill="#383838" transform="translate(44,70)"/>
<path d="M0 0 C1.98 0.99 3.96 1.98 6 3 C2.54320988 5.09876543 2.54320988 5.09876543 -0.0625 4.625 C-0.701875 4.41875 -1.34125 4.2125 -2 4 C-2.99 4 -3.98 4 -5 4 C-3.35 2.68 -1.7 1.36 0 0 Z " fill="#2C2C2C" transform="translate(133,0)"/>
<path d="M0 0 C2.64 1.98 5.28 3.96 8 6 C4 7 4 7 1.75 5.8125 C0 4 0 4 0 0 Z " fill="#343434" transform="translate(244,87)"/>
<path d="M0 0 C3.875 1.75 3.875 1.75 5 4 C4.67 4.66 4.34 5.32 4 6 C2.35 5.67 0.7 5.34 -1 5 C-0.67 3.35 -0.34 1.7 0 0 Z " fill="#2D2D2D" transform="translate(145,9)"/>
<path d="M0 0 C0.99 0.99 1.98 1.98 3 3 C0.69 4.65 -1.62 6.3 -4 8 C-3.07377893 4.29511572 -2.32789515 2.83395931 0 0 Z " fill="#2C2C2C" transform="translate(235,128)"/>
<path d="M0 0 C-0.33 1.32 -0.66 2.64 -1 4 C-2.65 3.67 -4.3 3.34 -6 3 C-6.33 2.01 -6.66 1.02 -7 0 C-4.3333581 -1.33332095 -2.83319697 -0.67102033 0 0 Z " fill="#2B2B2B" transform="translate(77,235)"/>
<path d="M0 0 C1.65 0.99 3.3 1.98 5 3 C4.34 3.66 3.68 4.32 3 5 C1 5 -1 5 -3 5 C-2.01 3.35 -1.02 1.7 0 0 Z " fill="#3A3A3A" transform="translate(163,23)"/>
<path d="M0 0 C0.598125 0.20625 1.19625 0.4125 1.8125 0.625 C1.1525 1.945 0.4925 3.265 -0.1875 4.625 C-1.8375 3.635 -3.4875 2.645 -5.1875 1.625 C-2.1875 -0.375 -2.1875 -0.375 0 0 Z " fill="#191919" transform="translate(263.1875,102.375)"/>
<path d="M0 0 C0.66 0.33 1.32 0.66 2 1 C0.02 3.97 0.02 3.97 -2 7 C-3.32 6.34 -4.64 5.68 -6 5 C-4.02 3.35 -2.04 1.7 0 0 Z " fill="#313131" transform="translate(63,55)"/>
</svg>
